REM DIRINDEX 1\4,1\2\5,1\2\6,1\2\7,1\3\8,1\3\9,1\3\10,1\3\11
REM DIRNAME folder01,folder02,folder03,folder04,folder05,folder06,folder07,folder08,folder09,folder10,folder11
TITLE ""
FILE "t_k_575-589.mp3" MP3
  TRACK 01 AUDIO
    TITLE "5:cjc108_1731"
    INDEX 01 00:00:00
  TRACK 02 AUDIO
    TITLE "0:"
    INDEX 01 00:01:34
  TRACK 03 AUDIO
    TITLE "6:cjc108_1732"
    INDEX 01 00:01:52
  TRACK 04 AUDIO
    TITLE "0:"
    INDEX 01 00:04:48
  TRACK 05 AUDIO
    TITLE "7:cjc108_1733"
    INDEX 01 00:04:66
  TRACK 06 AUDIO
    TITLE "0:"
    INDEX 01 00:10:19
  TRACK 07 AUDIO
    TITLE "5:cjc108_1734"
    INDEX 01 00:11:09
  TRACK 08 AUDIO
    TITLE "0:"
    INDEX 01 00:12:56
  TRACK 09 AUDIO
    TITLE "6:cjc108_1735"
    INDEX 01 00:13:00
  TRACK 10 AUDIO
    TITLE "0:"
    INDEX 01 00:14:27
  TRACK 11 AUDIO
    TITLE "7:cjc108_1736"
    INDEX 01 00:14:49
  TRACK 12 AUDIO
    TITLE "0:"
    INDEX 01 00:18:66
  TRACK 13 AUDIO
    TITLE "5:cjc108_1737"
    INDEX 01 00:19:46
  TRACK 14 AUDIO
    TITLE "0:"
    INDEX 01 00:21:19
  TRACK 15 AUDIO
    TITLE "6:cjc108_1738"
    INDEX 01 00:21:35
  TRACK 16 AUDIO
    TITLE "0:"
    INDEX 01 00:23:22
  TRACK 17 AUDIO
    TITLE "7:cjc108_1739"
    INDEX 01 00:23:42
  TRACK 18 AUDIO
    TITLE "0:"
    INDEX 01 00:27:18
  TRACK 19 AUDIO
    TITLE "5:cjc108_1740"
    INDEX 01 00:27:73
  TRACK 20 AUDIO
    TITLE "0:"
    INDEX 01 00:29:54
  TRACK 21 AUDIO
    TITLE "6:cjc108_1741"
    INDEX 01 00:29:64
  TRACK 22 AUDIO
    TITLE "0:"
    INDEX 01 00:32:27
  TRACK 23 AUDIO
    TITLE "7:cjc108_1742"
    INDEX 01 00:32:45
  TRACK 24 AUDIO
    TITLE "0:"
    INDEX 01 00:35:68
  TRACK 25 AUDIO
    TITLE "5:cjc108_1743"
    INDEX 01 00:36:54
  TRACK 26 AUDIO
    TITLE "0:"
    INDEX 01 00:37:69
  TRACK 27 AUDIO
    TITLE "6:cjc108_1744"
    INDEX 01 00:38:24
  TRACK 28 AUDIO
    TITLE "0:"
    INDEX 01 00:40:62
  TRACK 29 AUDIO
    TITLE "7:cjc108_1745"
    INDEX 01 00:41:08
  TRACK 30 AUDIO
    TITLE "0:"
    INDEX 01 00:46:06
  TRACK 31 AUDIO
    TITLE "5:cjc108_1746"
    INDEX 01 00:46:74
  TRACK 32 AUDIO
    TITLE "0:"
    INDEX 01 00:48:26
  TRACK 33 AUDIO
    TITLE "6:cjc108_1747"
    INDEX 01 00:48:55
  TRACK 34 AUDIO
    TITLE "0:"
    INDEX 01 00:50:01
  TRACK 35 AUDIO
    TITLE "7:cjc108_1748"
    INDEX 01 00:50:35
  TRACK 36 AUDIO
    TITLE "0:"
    INDEX 01 00:58:62
  TRACK 37 AUDIO
    TITLE "5:cjc108_1749"
    INDEX 01 00:59:43
  TRACK 38 AUDIO
    TITLE "0:"
    INDEX 01 01:01:05
  TRACK 39 AUDIO
    TITLE "6:cjc108_1750"
    INDEX 01 01:01:27
  TRACK 40 AUDIO
    TITLE "0:"
    INDEX 01 01:03:69
  TRACK 41 AUDIO
    TITLE "7:cjc108_1751"
    INDEX 01 01:04:11
  TRACK 42 AUDIO
    TITLE "0:"
    INDEX 01 01:08:05
  TRACK 43 AUDIO
    TITLE "5:cjc108_1752"
    INDEX 01 01:08:60
  TRACK 44 AUDIO
    TITLE "0:"
    INDEX 01 01:10:47
  TRACK 45 AUDIO
    TITLE "6:cjc108_1753"
    INDEX 01 01:10:69
  TRACK 46 AUDIO
    TITLE "0:"
    INDEX 01 01:12:60
  TRACK 47 AUDIO
    TITLE "7:cjc108_1754"
    INDEX 01 01:13:06
  TRACK 48 AUDIO
    TITLE "0:"
    INDEX 01 01:16:73
  TRACK 49 AUDIO
    TITLE "5:cjc108_1755"
    INDEX 01 01:17:57
  TRACK 50 AUDIO
    TITLE "0:"
    INDEX 01 01:19:60
  TRACK 51 AUDIO
    TITLE "6:cjc108_1756"
    INDEX 01 01:20:06
  TRACK 52 AUDIO
    TITLE "0:"
    INDEX 01 01:22:23
  TRACK 53 AUDIO
    TITLE "7:cjc108_1757"
    INDEX 01 01:22:44
  TRACK 54 AUDIO
    TITLE "0:"
    INDEX 01 01:27:06
  TRACK 55 AUDIO
    TITLE "5:cjc108_1758"
    INDEX 01 01:27:71
  TRACK 56 AUDIO
    TITLE "0:"
    INDEX 01 01:29:17
  TRACK 57 AUDIO
    TITLE "6:cjc108_1759"
    INDEX 01 01:29:27
  TRACK 58 AUDIO
    TITLE "0:"
    INDEX 01 01:30:34
  TRACK 59 AUDIO
    TITLE "7:cjc108_1760"
    INDEX 01 01:30:52
  TRACK 60 AUDIO
    TITLE "0:"
    INDEX 01 01:34:57
  TRACK 61 AUDIO
    TITLE "5:cjc108_1761"
    INDEX 01 01:35:41
  TRACK 62 AUDIO
    TITLE "0:"
    INDEX 01 01:37:26
  TRACK 63 AUDIO
    TITLE "6:cjc108_1762"
    INDEX 01 01:37:48
  TRACK 64 AUDIO
    TITLE "0:"
    INDEX 01 01:39:00
  TRACK 65 AUDIO
    TITLE "7:cjc108_1763"
    INDEX 01 01:39:19
  TRACK 66 AUDIO
    TITLE "0:"
    INDEX 01 01:44:66
  TRACK 67 AUDIO
    TITLE "5:cjc108_1764"
    INDEX 01 01:45:53
  TRACK 68 AUDIO
    TITLE "0:"
    INDEX 01 01:46:74
  TRACK 69 AUDIO
    TITLE "6:cjc108_1765"
    INDEX 01 01:47:31
  TRACK 70 AUDIO
    TITLE "0:"
    INDEX 01 01:48:58
  TRACK 71 AUDIO
    TITLE "7:cjc108_1766"
    INDEX 01 01:49:06
  TRACK 72 AUDIO
    TITLE "0:"
    INDEX 01 01:54:35
  TRACK 73 AUDIO
    TITLE "5:cjc108_1767"
    INDEX 01 01:55:42
  TRACK 74 AUDIO
    TITLE "0:"
    INDEX 01 01:57:27
  TRACK 75 AUDIO
    TITLE "6:cjc108_1768"
    INDEX 01 01:57:47
  TRACK 76 AUDIO
    TITLE "0:"
    INDEX 01 01:59:24
  TRACK 77 AUDIO
    TITLE "7:cjc108_1769"
    INDEX 01 01:59:44
  TRACK 78 AUDIO
    TITLE "0:"
    INDEX 01 02:03:71
  TRACK 79 AUDIO
    TITLE "5:cjc108_1770"
    INDEX 01 02:04:55
  TRACK 80 AUDIO
    TITLE "0:"
    INDEX 01 02:05:66
  TRACK 81 AUDIO
    TITLE "6:cjc108_1771"
    INDEX 01 02:06:14
  TRACK 82 AUDIO
    TITLE "0:"
    INDEX 01 02:09:32
  TRACK 83 AUDIO
    TITLE "7:cjc108_1772"
    INDEX 01 02:09:56
  TRACK 84 AUDIO
    TITLE "0:"
    INDEX 01 02:13:36
  TRACK 85 AUDIO
    TITLE "5:cjc108_1773"
    INDEX 01 02:14:20
  TRACK 86 AUDIO
    TITLE "0:"
    INDEX 01 02:15:66
  TRACK 87 AUDIO
    TITLE "6:cjc108_1774"
    INDEX 01 02:16:09
  TRACK 88 AUDIO
    TITLE "0:"
    INDEX 01 02:17:36
  TRACK 89 AUDIO
    TITLE "7:cjc108_1775"
    INDEX 01 02:17:53
  TRACK 90 AUDIO
    TITLE "0:"
    INDEX 01 02:23:72
